<svg width="40" height="40" viewBox="0 0 40 40" fill="none" xmlns="http://www.w3.org/2000/svg">
<path fill-rule="evenodd" clip-rule="evenodd" d="M19.0487 1.90487C20.765 1.90487 22.4279 2.13345 24.0109 2.56014C23.022 3.07943 22.2069 3.87714 21.6665 4.85466C21.1261 5.83217 20.884 6.94662 20.9701 8.06025C21.0562 9.17388 21.4668 10.2379 22.1511 11.1206C22.8354 12.0034 23.7634 12.6663 24.8204 13.0274L25.5405 13.2731C25.8163 13.3671 26.0669 13.5232 26.273 13.7292C26.4791 13.9353 26.6351 14.1859 26.7291 14.4618L26.9767 15.1818C27.3384 16.2377 28.0013 17.1646 28.8838 17.8481C29.7662 18.5315 30.8294 18.9416 31.9422 19.0277C33.055 19.1138 34.1687 18.8722 35.1457 18.3326C36.1228 17.793 36.9204 16.9791 37.4402 15.9914C37.8766 17.6093 38.0975 19.2778 38.0974 20.9535C38.0974 31.4741 29.5693 40.0022 19.0487 40.0022C15.4485 40.0022 12.0769 39.0022 9.20433 37.2649L3.42878 38.9622C3.09717 39.0597 2.74541 39.0661 2.41047 38.9807C2.07552 38.8953 1.76977 38.7213 1.52536 38.4769C1.28094 38.2325 1.10688 37.9267 1.02149 37.5918C0.936095 37.2568 0.942514 36.9051 1.04007 36.5734L2.73921 30.7979C0.943027 27.8287 -0.00440489 24.4237 1.53967e-05 20.9535C1.53967e-05 10.433 8.5281 1.90487 19.0487 1.90487ZM12.3817 18.0962C11.6238 18.0962 10.8971 18.3973 10.3612 18.9331C9.82539 19.469 9.52435 20.1957 9.52435 20.9535C9.52435 21.7113 9.82539 22.4381 10.3612 22.974C10.8971 23.5098 11.6238 23.8108 12.3817 23.8108C13.1395 23.8108 13.8662 23.5098 14.4021 22.974C14.9379 22.4381 15.239 21.7113 15.239 20.9535C15.239 20.1957 14.9379 19.469 14.4021 18.9331C13.8662 18.3973 13.1395 18.0962 12.3817 18.0962ZM25.7157 18.0962C24.9579 18.0962 24.2312 18.3973 23.6953 18.9331C23.1595 19.469 22.8584 20.1957 22.8584 20.9535C22.8584 21.7113 23.1595 22.4381 23.6953 22.974C24.2312 23.5098 24.9579 23.8108 25.7157 23.8108C26.4735 23.8108 27.2003 23.5098 27.7361 22.974C28.272 22.4381 28.573 21.7113 28.573 20.9535C28.573 20.1957 28.272 19.469 27.7361 18.9331C27.2003 18.3973 26.4735 18.0962 25.7157 18.0962ZM32.3828 0C32.7801 0.000158537 33.1674 0.124567 33.4906 0.355809C33.8137 0.587051 34.0564 0.91355 34.1848 1.2896L34.4324 2.00963C35.0039 3.68401 36.3182 5.00028 37.9945 5.57174L38.7126 5.81746C39.0883 5.94618 39.4143 6.18907 39.6451 6.51216C39.8759 6.83525 40 7.2224 40 7.61947C40 8.01654 39.8759 8.40369 39.6451 8.72678C39.4143 9.04987 39.0883 9.29276 38.7126 9.42147L37.9926 9.66911C36.3182 10.2406 35.0019 11.5549 34.4305 13.2312L34.1848 13.9493C34.056 14.325 33.8132 14.651 33.4901 14.8818C33.167 15.1126 32.7798 15.2367 32.3828 15.2367C31.9857 15.2367 31.5985 15.1126 31.2754 14.8818C30.9524 14.651 30.7095 14.325 30.5808 13.9493L30.3331 13.2293C30.051 12.4029 29.5832 11.6521 28.9658 11.0346C28.3483 10.4171 27.5975 9.94931 26.771 9.6672L26.0529 9.42147C25.6773 9.29276 25.3512 9.04987 25.1204 8.72678C24.8896 8.40369 24.7655 8.01654 24.7655 7.61947C24.7655 7.2224 24.8896 6.83525 25.1204 6.51216C25.3512 6.18907 25.6773 5.94618 26.0529 5.81746L26.7729 5.56983C28.4473 4.99837 29.7636 3.68401 30.335 2.00773L30.5808 1.2896C30.7091 0.91355 30.9518 0.587051 31.2749 0.355809C31.5981 0.124567 31.9854 0.000158537 32.3828 0Z" fill="#003C2C"/>
</svg>
